# xmcd CD database file
#
# Track frame offsets:
#	150
#	28998
#	76867
#	112092
#	131071
#	156755
#	179042
#
# Disc length: 2640 seconds
#
# Revision: 0
# Processed by: cddbd v1.5.2PL0 Copyright (c) Steve Scherf et al.
# Submitted via: CDex 1.70beta2
#
DISCID=5e0a4e07
DTITLE=Pierre Labbé  - Tremblement de Fer
DYEAR=2010
DGENRE=Jazz
TTITLE0=Freeleux
TTITLE1=Lavra
TTITLE2=Autochtone
TTITLE3=Serpents
TTITLE4=2e souk
TTITLE5=Mutations
TTITLE6=La fille et la grenouille
EXTD=YEAR: 2010
EXTT0=
EXTT1=
EXTT2=
EXTT3=
EXTT4=
EXTT5=
EXTT6=
PLAYORDER=
